<svg id="visual" viewBox="0 0 1920 1080" width="1920" height="1080" xmlns="http://www.w3.org/2000/svg" xmlns:xlink="http://www.w3.org/1999/xlink" version="1.1"><rect x="0" y="0" width="1920" height="1080" fill="#6d3434"></rect><defs><linearGradient id="grad1_0" x1="43.8%" y1="0%" x2="100%" y2="100%"><stop offset="14.444444444444446%" stop-color="#6d3434" stop-opacity="1"></stop><stop offset="85.55555555555554%" stop-color="#6d3434" stop-opacity="1"></stop></linearGradient></defs><defs><linearGradient id="grad2_0" x1="0%" y1="0%" x2="56.3%" y2="100%"><stop offset="14.444444444444446%" stop-color="#6d3434" stop-opacity="1"></stop><stop offset="85.55555555555554%" stop-color="#6d3434" stop-opacity="1"></stop></linearGradient></defs><g transform="translate(1920, 0)"><path d="M0 648C-70.4 647.3 -140.7 646.6 -200.2 616.3C-259.8 586 -308.4 526.1 -338.6 466C-368.7 405.9 -380.4 345.5 -412.6 299.8C-444.8 254.1 -497.5 223 -540.2 175.5C-582.9 128 -615.4 64 -648 0L0 0Z" fill="#510000"></path></g><g transform="translate(0, 1080)"><path d="M0 -648C77.1 -656.5 154.2 -665.1 200.2 -616.3C246.3 -567.5 261.3 -461.3 290.4 -399.7C319.4 -338 362.4 -320.9 399.7 -290.4C436.9 -259.9 468.4 -215.9 508.8 -165.3C549.2 -114.7 598.6 -57.3 648 0L0 0Z" fill="#510000"></path></g></svg>