<svg id="visual" viewBox="0 0 900 600" width="900" height="600" xmlns="http://www.w3.org/2000/svg" xmlns:xlink="http://www.w3.org/1999/xlink" version="1.1"><rect x="0" y="0" width="900" height="600" fill="#647b8c"></rect><defs><linearGradient id="grad1_0" x1="33.3%" y1="0%" x2="100%" y2="100%"><stop offset="20%" stop-color="#647b8c" stop-opacity="1"></stop><stop offset="80%" stop-color="#647b8c" stop-opacity="1"></stop></linearGradient></defs><defs><linearGradient id="grad2_0" x1="0%" y1="0%" x2="66.7%" y2="100%"><stop offset="20%" stop-color="#647b8c" stop-opacity="1"></stop><stop offset="80%" stop-color="#647b8c" stop-opacity="1"></stop></linearGradient></defs><g transform="translate(900, 0)"><path d="M0 486.7C-46 440.2 -91.9 393.6 -156.5 377.9C-221.1 362.1 -304.3 377.2 -344.2 344.2C-384.1 311.1 -380.7 229.9 -397.3 164.6C-413.8 99.2 -450.3 49.6 -486.7 0L0 0Z" fill="#09217d"></path></g><g transform="translate(0, 600)"><path d="M0 -486.7C67.7 -480.5 135.4 -474.3 182.5 -440.7C229.6 -407 256.1 -346 302.6 -302.6C349.1 -259.3 415.7 -233.8 449.7 -186.3C483.7 -138.8 485.2 -69.4 486.7 0L0 0Z" fill="#09217d"></path></g></svg>