<svg id="visual" viewBox="0 0 900 600" width="900" height="600" xmlns="http://www.w3.org/2000/svg" xmlns:xlink="http://www.w3.org/1999/xlink" version="1.1"><rect x="0" y="0" width="900" height="600" fill="#5A090A"></rect><g transform="translate(56.87336824750139 60.946568380915096)"><path d="M316.9 -542.6C425.2 -486.4 537.3 -430.7 554.2 -340.4C571 -250 492.5 -125 471.6 -12.1C450.6 100.8 487.3 201.7 468.5 288.6C449.6 375.4 375.3 448.4 288 482.5C200.7 516.6 100.3 511.8 -1.2 513.8C-102.7 515.8 -205.3 524.6 -311.6 501.5C-417.8 478.3 -527.6 423.2 -597.1 334.2C-666.6 245.3 -695.8 122.7 -643.7 30.1C-591.6 -62.5 -458.2 -125 -377.5 -194.6C-296.8 -264.1 -268.9 -340.8 -214.8 -428.2C-160.7 -515.6 -80.3 -613.8 12 -634.6C104.3 -655.4 208.7 -598.8 316.9 -542.6" fill="#410A0B"></path></g></svg>