<svg id="visual" viewBox="0 0 1920 1080" width="1920" height="1080" xmlns="http://www.w3.org/2000/svg" xmlns:xlink="http://www.w3.org/1999/xlink" version="1.1"><path d="M0 749L160 705L320 787L480 640L640 759L800 635L960 673L1120 610L1280 727L1440 631L1600 741L1760 776L1920 732L1920 1081L1760 1081L1600 1081L1440 1081L1280 1081L1120 1081L960 1081L800 1081L640 1081L480 1081L320 1081L160 1081L0 1081Z" fill="#660708"></path><path d="M0 828L160 861L320 833L480 730L640 733L800 843L960 806L1120 730L1280 703L1440 779L1600 831L1760 699L1920 822L1920 1081L1760 1081L1600 1081L1440 1081L1280 1081L1120 1081L960 1081L800 1081L640 1081L480 1081L320 1081L160 1081L0 1081Z" fill="#5a080b"></path><path d="M0 805L160 865L320 876L480 867L640 908L800 839L960 755L1120 858L1280 886L1440 869L1600 757L1760 879L1920 885L1920 1081L1760 1081L1600 1081L1440 1081L1280 1081L1120 1081L960 1081L800 1081L640 1081L480 1081L320 1081L160 1081L0 1081Z" fill="#4d090d"></path><path d="M0 949L160 872L320 856L480 876L640 937L800 819L960 889L1120 838L1280 955L1440 893L1600 819L1760 879L1920 935L1920 1081L1760 1081L1600 1081L1440 1081L1280 1081L1120 1081L960 1081L800 1081L640 1081L480 1081L320 1081L160 1081L0 1081Z" fill="#41090d"></path><path d="M0 980L160 930L320 888L480 948L640 993L800 890L960 938L1120 925L1280 912L1440 896L1600 958L1760 988L1920 988L1920 1081L1760 1081L1600 1081L1440 1081L1280 1081L1120 1081L960 1081L800 1081L640 1081L480 1081L320 1081L160 1081L0 1081Z" fill="#340a0b"></path><path d="M0 1023L160 983L320 1046L480 1025L640 986L800 1007L960 989L1120 1017L1280 1038L1440 989L1600 1001L1760 1026L1920 1007L1920 1081L1760 1081L1600 1081L1440 1081L1280 1081L1120 1081L960 1081L800 1081L640 1081L480 1081L320 1081L160 1081L0 1081Z" fill="#280808"></path></svg>