<svg id="visual" viewBox="0 0 900 600" width="900" height="600" xmlns="http://www.w3.org/2000/svg" xmlns:xlink="http://www.w3.org/1999/xlink" version="1.1"><path d="M0 472L13.7 463.8C27.3 455.7 54.7 439.3 82 448.2C109.3 457 136.7 491 163.8 493.2C191 495.3 218 465.7 245.2 451.5C272.3 437.3 299.7 438.7 327 453C354.3 467.3 381.7 494.7 409 505.7C436.3 516.7 463.7 511.3 491 511C518.3 510.7 545.7 515.3 573 507.3C600.3 499.3 627.7 478.7 654.8 476.7C682 474.7 709 491.3 736.2 493C763.3 494.7 790.7 481.3 818 472.3C845.3 463.3 872.7 458.7 886.3 456.3L900 454L900 601L886.3 601C872.7 601 845.3 601 818 601C790.7 601 763.3 601 736.2 601C709 601 682 601 654.8 601C627.7 601 600.3 601 573 601C545.7 601 518.3 601 491 601C463.7 601 436.3 601 409 601C381.7 601 354.3 601 327 601C299.7 601 272.3 601 245.2 601C218 601 191 601 163.8 601C136.7 601 109.3 601 82 601C54.7 601 27.3 601 13.7 601L0 601Z" fill="#3d68b4" stroke-linecap="round" stroke-linejoin="miter"></path></svg>