<svg width="900" height="400" xmlns="http://www.w3.org/2000/svg" version="1.1">
 <defs>
  <linearGradient y2="0" x2="1" y1="0" x1="0" id="svg_6">
   <stop offset="0" stop-opacity="0.99609" stop-color="#0968e5"/>
   <stop offset="1" stop-opacity="0.99609" stop-color="#091970"/>
  </linearGradient>
 </defs>
 <g>
  <title>Layer 1</title>
  <rect id="svg_1" fill="#ffffff" height="400" width="900" y="0" x="0"/>
  <path id="svg_2" fill="#69d0fa" d="m0,72l12.5,7.8c12.5,7.9 37.5,23.5 62.5,23c25,-0.5 50,-17.1 75,-17.1c25,0 50,16.6 75,31.8c25,15.2 50,28.8 75,26.8c25,-2 50,-19.6 75,-31c25,-11.3 50,-16.3 75,-10.6c25,5.6 50,22 75,29c25,7 50,4.6 75,-4.2c25,-8.8 50,-24.2 75,-28.3c25,-4.2 50,2.8 75,7.6c25,4.9 50,7.5 75,13.7c25,6.2 50,15.8 62.5,20.7l12.5,4.8l0,-146l-12.5,0c-12.5,0 -37.5,0 -62.5,0c-25,0 -50,0 -75,0c-25,0 -50,0 -75,0c-25,0 -50,0 -75,0c-25,0 -50,0 -75,0c-25,0 -50,0 -75,0c-25,0 -50,0 -75,0c-25,0 -50,0 -75,0c-25,0 -50,0 -75,0c-25,0 -50,0 -75,0c-25,0 -50,0 -75,0c-25,0 -50,0 -62.5,0l-12.5,0l0,72z"/>
  <path id="svg_3" fill="#2293d4" d="m0,80l12.5,3.5c12.5,3.5 37.5,10.5 62.5,10c25,-0.5 50,-8.5 75,-10c25,-1.5 50,3.5 75,-0.2c25,-3.6 50,-16 75,-15.8c25,0.2 50,12.8 75,24.2c25,11.3 50,21.3 75,24.6c25,3.4 50,0 75,-8c25,-8 50,-20.6 75,-24.1c25,-3.5 50,2.1 75,10c25,7.8 50,17.8 75,15.3c25,-2.5 50,-17.5 75,-29c25,-11.5 50,-19.5 62.5,-23.5l12.5,-4l0,-53l-12.5,0c-12.5,0 -37.5,0 -62.5,0c-25,0 -50,0 -75,0c-25,0 -50,0 -75,0c-25,0 -50,0 -75,0c-25,0 -50,0 -75,0c-25,0 -50,0 -75,0c-25,0 -50,0 -75,0c-25,0 -50,0 -75,0c-25,0 -50,0 -75,0c-25,0 -50,0 -75,0c-25,0 -50,0 -75,0c-25,0 -50,0 -62.5,0l-12.5,0l0,80z"/>
  <path id="svg_4" fill="#0056a7" d="m0,56l12.5,-1.3c12.5,-1.4 37.5,-4 62.5,1c25,5 50,17.6 75,16.5c25,-1.2 50,-16.2 75,-24.2c25,-8 50,-9 75,-0.7c25,8.4 50,26 75,29.9c25,3.8 50,-6.2 75,-14.2c25,-8 50,-14 75,-15c25,-1 50,3 75,2.5c25,-0.5 50,-5.5 75,-0.5c25,5 50,20 75,20.2c25,0.1 50,-14.5 75,-20.9c25,-6.3 50,-4.3 62.5,-3.3l12.5,1l0,-47l-12.5,0c-12.5,0 -37.5,0 -62.5,0c-25,0 -50,0 -75,0c-25,0 -50,0 -75,0c-25,0 -50,0 -75,0c-25,0 -50,0 -75,0c-25,0 -50,0 -75,0c-25,0 -50,0 -75,0c-25,0 -50,0 -75,0c-25,0 -50,0 -75,0c-25,0 -50,0 -75,0c-25,0 -50,0 -75,0c-25,0 -50,0 -62.5,0l-12.5,0l0,56z"/>
  <path id="svg_5" fill="url(#svg_6)" d="m0,19l12.5,0.5c12.5,0.5 37.5,1.5 62.5,5.3c25,3.9 50,10.5 75,11c25,0.5 50,-5.1 75,-2.5c25,2.7 50,13.7 75,15.7c25,2 50,-5 75,-5.3c25,-0.4 50,6 75,9.8c25,3.8 50,5.2 75,0.3c25,-4.8 50,-15.8 75,-22.3c25,-6.5 50,-8.5 75,-5.7c25,2.9 50,10.5 75,12.4c25,1.8 50,-2.2 75,0.1c25,2.4 50,11 62.5,15.4l12.5,4.3l0,-58l-12.5,0c-12.5,0 -37.5,0 -62.5,0c-25,0 -50,0 -75,0c-25,0 -50,0 -75,0c-25,0 -50,0 -75,0c-25,0 -50,0 -75,0c-25,0 -50,0 -75,0c-25,0 -50,0 -75,0c-25,0 -50,0 -75,0c-25,0 -50,0 -75,0c-25,0 -50,0 -75,0c-25,0 -50,0 -75,0c-25,0 -50,0 -62.5,0l-12.5,0l0,19z"/>
 </g>
</svg>