<svg id="visual" viewBox="0 0 1080 500" width="1080" height="500" xmlns="http://www.w3.org/2000/svg" xmlns:xlink="http://www.w3.org/1999/xlink" version="1.1"><path d="M0 70L10.7 83C21.3 96 42.7 122 63.8 127.8C85 133.7 106 119.3 127.2 111C148.3 102.7 169.7 100.3 190.8 106C212 111.7 233 125.3 254.2 137.7C275.3 150 296.7 161 317.8 158C339 155 360 138 381.2 123.5C402.3 109 423.7 97 444.8 105.7C466 114.3 487 143.7 508.2 142.8C529.3 142 550.7 111 571.8 96.7C593 82.3 614 84.7 635.2 82.2C656.3 79.7 677.7 72.3 698.8 72.3C720 72.3 741 79.7 762.2 90.2C783.3 100.7 804.7 114.3 825.8 111.2C847 108 868 88 889.2 77.2C910.3 66.3 931.7 64.7 952.8 67.5C974 70.3 995 77.7 1016.2 94.3C1037.3 111 1058.7 137 1069.3 150L1080 163L1080 0L1069.3 0C1058.7 0 1037.3 0 1016.2 0C995 0 974 0 952.8 0C931.7 0 910.3 0 889.2 0C868 0 847 0 825.8 0C804.7 0 783.3 0 762.2 0C741 0 720 0 698.8 0C677.7 0 656.3 0 635.2 0C614 0 593 0 571.8 0C550.7 0 529.3 0 508.2 0C487 0 466 0 444.8 0C423.7 0 402.3 0 381.2 0C360 0 339 0 317.8 0C296.7 0 275.3 0 254.2 0C233 0 212 0 190.8 0C169.7 0 148.3 0 127.2 0C106 0 85 0 63.8 0C42.7 0 21.3 0 10.7 0L0 0Z" fill="#ffffff" stroke-linecap="round" stroke-linejoin="miter"></path></svg>