<svg id="visual" viewBox="0 0 1080 500" width="1080" height="500" xmlns="http://www.w3.org/2000/svg" xmlns:xlink="http://www.w3.org/1999/xlink" version="1.1"><path d="M0 288L18 310.5C36 333 72 378 108 368.3C144 358.7 180 294.3 216 274.8C252 255.3 288 280.7 324 276C360 271.3 396 236.7 432 246.5C468 256.3 504 310.7 540 335.2C576 359.7 612 354.3 648 355.2C684 356 720 363 756 351.2C792 339.3 828 308.7 864 296.2C900 283.7 936 289.3 972 307.7C1008 326 1044 357 1062 372.5L1080 388L1080 501L1062 501C1044 501 1008 501 972 501C936 501 900 501 864 501C828 501 792 501 756 501C720 501 684 501 648 501C612 501 576 501 540 501C504 501 468 501 432 501C396 501 360 501 324 501C288 501 252 501 216 501C180 501 144 501 108 501C72 501 36 501 18 501L0 501Z" fill="#0968e5"></path><path d="M0 295L18 309.3C36 323.7 72 352.3 108 351.5C144 350.7 180 320.3 216 310.3C252 300.3 288 310.7 324 336.5C360 362.3 396 403.7 432 397C468 390.3 504 335.7 540 317.7C576 299.7 612 318.3 648 324.7C684 331 720 325 756 326.5C792 328 828 337 864 336.5C900 336 936 326 972 318.8C1008 311.7 1044 307.3 1062 305.2L1080 303L1080 501L1062 501C1044 501 1008 501 972 501C936 501 900 501 864 501C828 501 792 501 756 501C720 501 684 501 648 501C612 501 576 501 540 501C504 501 468 501 432 501C396 501 360 501 324 501C288 501 252 501 216 501C180 501 144 501 108 501C72 501 36 501 18 501L0 501Z" fill="#0085f1"></path><path d="M0 329L18 332.7C36 336.3 72 343.7 108 338.7C144 333.7 180 316.3 216 327.3C252 338.3 288 377.7 324 380C360 382.3 396 347.7 432 348.8C468 350 504 387 540 392.7C576 398.3 612 372.7 648 374.2C684 375.7 720 404.3 756 415C792 425.7 828 418.3 864 402.3C900 386.3 936 361.7 972 352.5C1008 343.3 1044 349.7 1062 352.8L1080 356L1080 501L1062 501C1044 501 1008 501 972 501C936 501 900 501 864 501C828 501 792 501 756 501C720 501 684 501 648 501C612 501 576 501 540 501C504 501 468 501 432 501C396 501 360 501 324 501C288 501 252 501 216 501C180 501 144 501 108 501C72 501 36 501 18 501L0 501Z" fill="#00a0f8"></path><path d="M0 468L18 465.7C36 463.3 72 458.7 108 438.5C144 418.3 180 382.7 216 370C252 357.3 288 367.7 324 372.2C360 376.7 396 375.3 432 384C468 392.7 504 411.3 540 412.7C576 414 612 398 648 394.5C684 391 720 400 756 413.7C792 427.3 828 445.7 864 455.3C900 465 936 466 972 456.8C1008 447.7 1044 428.3 1062 418.7L1080 409L1080 501L1062 501C1044 501 1008 501 972 501C936 501 900 501 864 501C828 501 792 501 756 501C720 501 684 501 648 501C612 501 576 501 540 501C504 501 468 501 432 501C396 501 360 501 324 501C288 501 252 501 216 501C180 501 144 501 108 501C72 501 36 501 18 501L0 501Z" fill="#37b9fa"></path><path d="M0 487L18 480.8C36 474.7 72 462.3 108 457.3C144 452.3 180 454.7 216 453.7C252 452.7 288 448.3 324 451.2C360 454 396 464 432 465.7C468 467.3 504 460.7 540 462.2C576 463.7 612 473.3 648 468C684 462.7 720 442.3 756 431.2C792 420 828 418 864 416.3C900 414.7 936 413.3 972 419.8C1008 426.3 1044 440.7 1062 447.8L1080 455L1080 501L1062 501C1044 501 1008 501 972 501C936 501 900 501 864 501C828 501 792 501 756 501C720 501 684 501 648 501C612 501 576 501 540 501C504 501 468 501 432 501C396 501 360 501 324 501C288 501 252 501 216 501C180 501 144 501 108 501C72 501 36 501 18 501L0 501Z" fill="#ffffff"></path></svg>